<?xml version="1.0" encoding="UTF-8"?>
<!DOCTYPE svg PUBLIC "-//W3C//DTD SVG 1.1//EN" "http://www.w3.org/Graphics/SVG/1.1/DTD/svg11.dtd">
<svg xmlns="http://www.w3.org/2000/svg" version="1.1" width="308px" height="182px" style="shape-rendering:geometricPrecision; text-rendering:geometricPrecision; image-rendering:optimizeQuality; fill-rule:evenodd; clip-rule:evenodd" xmlns:xlink="http://www.w3.org/1999/xlink">
<g><path style="opacity:1" fill="#f9faf9" d="M 63.5,6.5 C 65.5273,6.33788 67.5273,6.50454 69.5,7C 69.2956,51.5719 75.4623,95.4052 88,138.5C 92.7707,129.529 96.7707,120.196 100,110.5C 108.938,83.0176 118.272,55.6843 128,28.5C 129.667,25.1667 131.333,21.8333 133,18.5C 137.219,14.466 141.219,14.7993 145,19.5C 145.167,20.8333 145.333,22.1667 145.5,23.5C 141.193,41.7273 137.36,60.0606 134,78.5C 129.988,100.467 129.655,122.467 133,144.5C 136.844,162.851 148.011,172.851 166.5,174.5C 184.288,172.353 200.121,165.686 214,154.5C 215.059,154.63 215.892,155.13 216.5,156C 204.854,167.493 190.854,174.826 174.5,178C 149.992,181.483 134.492,171.316 128,147.5C 123.553,123.533 123.553,99.5334 128,75.5C 131.014,59.1002 134.014,42.7669 137,26.5C 131.409,40.2722 126.409,54.2722 122,68.5C 114.385,96.6297 105.385,124.296 95,151.5C 88.6869,158.342 82.6869,158.009 77,150.5C 71.0097,138.875 67.343,126.542 66,113.5C 61.8467,83.2548 60.5133,52.9215 62,22.5C 51.9837,41.2095 44.3171,60.8761 39,81.5C 31.1679,108.66 26.1679,136.327 24,164.5C 21.5647,169.224 17.7314,170.724 12.5,169C 11.5838,168.626 10.7504,168.126 10,167.5C 8.4961,163.961 8.16277,160.295 9,156.5C 16.8222,129.545 24.4888,102.545 32,75.5C 37.9973,54.1665 46.3306,33.8332 57,14.5C 59.0007,11.6693 61.1673,9.0026 63.5,6.5 Z"/></g>
<g><path style="opacity:1" fill="#f9faf9" d="M 171.5,74.5 C 177.555,74.0522 179.721,76.7189 178,82.5C 175.451,86.9255 172.118,87.5921 168,84.5C 166.755,80.2353 167.922,76.902 171.5,74.5 Z"/></g>
<g><path style="opacity:1" fill="#f9faf9" d="M 268.5,91.5 C 273.012,91.8689 274.512,94.2022 273,98.5C 263.982,106.018 255.815,114.351 248.5,123.5C 253.509,129.167 259.842,131.834 267.5,131.5C 279.332,130.422 290.332,126.755 300.5,120.5C 302.596,121.62 302.93,123.12 301.5,125C 292.83,130.556 283.496,134.556 273.5,137C 262.49,138.665 252.323,136.498 243,130.5C 239.287,135.424 235.454,140.258 231.5,145C 224.923,146.591 222.756,144.091 225,137.5C 227.58,132.423 230.747,127.756 234.5,123.5C 230.533,117.768 228.033,111.434 227,104.5C 209.23,119.886 188.897,130.553 166,136.5C 162.667,136.5 160,135.167 158,132.5C 154.293,118.826 157.127,106.659 166.5,96C 170.472,95.1529 173.138,96.6529 174.5,100.5C 170.248,107.005 167.081,114.005 165,121.5C 164.333,124.167 164.333,126.833 165,129.5C 165.956,130.894 167.289,131.561 169,131.5C 192.434,125.539 212.601,114.039 229.5,97C 232.099,96.231 234.599,96.3977 237,97.5C 238.039,103.656 239.706,109.656 242,115.5C 250.73,107.265 259.563,99.2647 268.5,91.5 Z"/></g>
</svg>
